<svg width="28" height="28" viewBox="0 0 28 28" fill="none" xmlns="http://www.w3.org/2000/svg">
<g filter="url(#filter0_d_23_22)">
<path d="M17.2936 6.22512H19.5132L18.4084 3.29712L17.2936 6.22512Z" fill="white"/>
<path d="M18.4 0C17.2924 0 16.2097 0.328434 15.2888 0.94377C14.3679 1.55911 13.6501 2.43371 13.2263 3.45697C12.8024 4.48024 12.6915 5.60621 12.9076 6.6925C13.1237 7.7788 13.657 8.77662 14.4402 9.5598C15.2234 10.343 16.2212 10.8763 17.3075 11.0924C18.3938 11.3085 19.5198 11.1976 20.543 10.7737C21.5663 10.3499 22.4409 9.63211 23.0562 8.71119C23.6716 7.79028 24 6.70757 24 5.6C23.9984 4.11527 23.4079 2.69182 22.358 1.64196C21.3082 0.592097 19.8847 0.00158823 18.4 0ZM20.752 8.3744C20.7028 8.39297 20.6505 8.40168 20.598 8.40003C20.5455 8.39839 20.4938 8.38641 20.446 8.36479C20.3981 8.34317 20.3549 8.31234 20.319 8.27404C20.283 8.23575 20.255 8.19074 20.2364 8.1416L19.8152 7.0252H16.9888L16.5632 8.142C16.5455 8.19241 16.518 8.23877 16.4821 8.27835C16.4462 8.31793 16.4028 8.34993 16.3544 8.37246C16.306 8.39499 16.2535 8.40759 16.2001 8.40952C16.1468 8.41145 16.0936 8.40268 16.0436 8.38371C15.9937 8.36474 15.9481 8.33597 15.9094 8.29909C15.8708 8.2622 15.84 8.21796 15.8187 8.16896C15.7975 8.11996 15.7862 8.0672 15.7857 8.01379C15.7852 7.96039 15.7953 7.90741 15.8156 7.858L17.9184 2.338C17.9564 2.23977 18.023 2.15519 18.1096 2.09519C18.1962 2.03519 18.2987 2.00252 18.4041 2.0014C18.5094 2.00028 18.6126 2.03076 18.7005 2.08891C18.7883 2.14706 18.8567 2.2302 18.8968 2.3276L20.9848 7.8596C21.022 7.95874 21.0185 8.06862 20.9748 8.16513C20.9312 8.26164 20.851 8.3369 20.752 8.3744Z" fill="white"/>
<path d="M9.59999 8.80005C8.49242 8.80005 7.40972 9.12848 6.48881 9.74382C5.56789 10.3592 4.85013 11.2338 4.42628 12.257C4.00243 13.2803 3.89153 14.4063 4.1076 15.4926C4.32368 16.5788 4.85703 17.5767 5.6402 18.3598C6.42337 19.143 7.4212 19.6764 8.50749 19.8924C9.59378 20.1085 10.7198 19.9976 11.743 19.5738C12.7663 19.1499 13.6409 18.4322 14.2562 17.5112C14.8715 16.5903 15.2 15.5076 15.2 14.4C15.1984 12.9153 14.6079 11.4919 13.558 10.442C12.5082 9.39214 11.0847 8.80164 9.59999 8.80005ZM11.468 17.6H7.732C7.65994 17.6001 7.58922 17.5806 7.52731 17.5438C7.46539 17.5069 7.41459 17.454 7.38025 17.3907C7.34591 17.3273 7.32932 17.2559 7.33224 17.1839C7.33515 17.1119 7.35746 17.042 7.3968 16.9816L10.6428 12H7.8468C7.74071 12 7.63897 11.9579 7.56395 11.8829C7.48894 11.8079 7.4468 11.7061 7.4468 11.6C7.4468 11.494 7.48894 11.3922 7.56395 11.3172C7.63897 11.2422 7.74071 11.2 7.8468 11.2H11.3808C11.4528 11.2 11.5236 11.2195 11.5855 11.2563C11.6474 11.2932 11.6982 11.3461 11.7325 11.4094C11.7669 11.4728 11.7835 11.5442 11.7805 11.6162C11.7776 11.6882 11.7553 11.7581 11.716 11.8184L8.46999 16.8H11.47C11.5761 16.8 11.6778 16.8422 11.7528 16.9172C11.8278 16.9922 11.87 17.094 11.87 17.2C11.87 17.3061 11.8278 17.4079 11.7528 17.4829C11.6778 17.5579 11.5761 17.6 11.47 17.6H11.468Z" fill="white"/>
</g>
<defs>
<filter id="filter0_d_23_22" x="0" y="0" width="28" height="28" filterUnits="userSpaceOnUse" color-interpolation-filters="sRGB">
<feFlood flood-opacity="0" result="BackgroundImageFix"/>
<feColorMatrix in="SourceAlpha" type="matrix" values="0 0 0 0 0 0 0 0 0 0 0 0 0 0 0 0 0 0 127 0" result="hardAlpha"/>
<feOffset dy="4"/>
<feGaussianBlur stdDeviation="2"/>
<feComposite in2="hardAlpha" operator="out"/>
<feColorMatrix type="matrix" values="0 0 0 0 0 0 0 0 0 0 0 0 0 0 0 0 0 0 0.25 0"/>
<feBlend mode="normal" in2="BackgroundImageFix" result="effect1_dropShadow_23_22"/>
<feBlend mode="normal" in="SourceGraphic" in2="effect1_dropShadow_23_22" result="shape"/>
</filter>
</defs>
</svg>
