<svg width="375" height="349" viewBox="0 0 375 349" fill="none" xmlns="http://www.w3.org/2000/svg">
<path fill-rule="evenodd" clip-rule="evenodd" d="M-6.2177 73.7932H2.66508C3.64524 73.7932 4.44626 74.5942 4.44626 75.5744C4.44626 76.5545 3.64524 77.3561 2.66508 77.3561H-6.2177C-7.19898 77.3561 -8 76.5545 -8 75.5744C-8 74.5942 -7.19898 73.7932 -6.2177 73.7932Z" fill="#FEFEFE"/>
<path fill-rule="evenodd" clip-rule="evenodd" d="M282.683 94.5487C295.177 94.5487 305.366 84.3596 305.366 71.866C305.366 59.3724 295.177 49.1833 282.683 49.1833C270.19 49.1833 260 59.3724 260 71.866C260 84.3596 270.19 94.5487 282.683 94.5487Z" fill="#FAC500"/>
<path fill-rule="evenodd" clip-rule="evenodd" d="M288.686 74.6816C284.993 72.7489 280.541 72.9849 277.075 75.2984C273.606 77.6102 271.678 81.6305 272.044 85.7821C272.409 89.9342 275.011 93.5552 278.83 95.2265C305.986 95.3915 325.542 95.3915 337.495 95.2265C339.748 91.2135 339.348 86.235 336.48 82.6355C333.609 79.0359 328.848 77.5347 324.432 78.8382C323.063 70.6055 316.413 64.2722 308.123 63.3095C299.835 62.3452 291.908 66.9823 288.686 74.6816Z" fill="#DAE6EB"/>
<path opacity="0.32952" fill-rule="evenodd" clip-rule="evenodd" d="M45.206 38.473C39.9369 35.2898 33.1456 36.3122 29.0465 40.9054C24.9478 45.4986 24.7011 52.3602 28.4601 57.2356C97.8149 57.0774 132.492 56.9979 132.492 56.9979C135.529 56.6853 138.11 54.6444 139.117 51.7642C140.123 48.8812 139.372 45.6777 137.189 43.5428C135.008 41.4073 131.789 40.7274 128.929 41.7971C130.904 37.3498 129.646 32.1319 125.863 29.0714C122.08 26.0116 116.713 25.873 112.779 28.734C109.824 10.3269 92.6522 -2.30642 74.2 0.35351C55.7483 3.01232 42.8424 19.9808 45.206 38.473Z" fill="#DAE6EB"/>
<path opacity="0.28125" fill-rule="evenodd" clip-rule="evenodd" d="M22.7812 74.1833H95.7936C96.7737 74.1833 97.5753 74.9844 97.5753 75.9645C97.5753 76.9447 96.7737 77.7463 95.7936 77.7463H22.7812C21.801 77.7463 21 76.9447 21 75.9645C21 74.9844 21.801 74.1833 22.7812 74.1833Z" fill="#DAE6EB"/>
<path opacity="0.480678" fill-rule="evenodd" clip-rule="evenodd" d="M194.915 71.5399H130.664C129.684 71.5399 128.883 72.3409 128.883 73.3217C128.883 74.3024 129.684 75.104 130.664 75.104H194.915C195.896 75.104 196.697 74.3024 196.697 73.3217C196.697 72.3409 195.896 71.5399 194.915 71.5399Z" fill="#DAE6EB"/>
<path opacity="0.480678" fill-rule="evenodd" clip-rule="evenodd" d="M209.662 71.5399H202.205C201.223 71.5399 200.423 72.3409 200.423 73.3217C200.423 74.3024 201.223 75.104 202.205 75.104H209.662C210.643 75.104 211.446 74.3024 211.446 73.3217C211.446 72.3409 210.643 71.5399 209.662 71.5399Z" fill="#DAE6EB"/>
<path fill-rule="evenodd" clip-rule="evenodd" d="M249.055 21.969H208.964C207.983 21.969 207.183 22.77 207.183 23.7502C207.183 24.7303 207.983 25.5319 208.964 25.5319H249.055C250.036 25.5319 250.836 24.7303 250.836 23.7502C250.836 22.77 250.036 21.969 249.055 21.969Z" fill="#DAE6EB"/>
<path fill-rule="evenodd" clip-rule="evenodd" d="M258.689 21.969H255.156C254.174 21.969 253.374 22.77 253.374 23.7502C253.374 24.7303 254.174 25.5319 255.156 25.5319H258.689C259.668 25.5319 260.47 24.7303 260.47 23.7502C260.47 22.77 259.668 21.969 258.689 21.969Z" fill="#DAE6EB"/>
<path fill-rule="evenodd" clip-rule="evenodd" d="M361.874 43.1833H321.781C320.803 43.1833 320 43.9844 320 44.9651C320 45.9458 320.803 46.7463 321.781 46.7463H361.874C362.852 46.7463 363.655 45.9458 363.655 44.9651C363.655 43.9844 362.852 43.1833 361.874 43.1833Z" fill="#DAE6EB"/>
<path fill-rule="evenodd" clip-rule="evenodd" d="M373.314 43.1833H369.782C368.803 43.1833 368 43.9844 368 44.9651C368 45.9458 368.803 46.7463 369.782 46.7463H373.314C374.296 46.7463 375.096 45.9458 375.096 44.9651C375.096 43.9844 374.296 43.1833 373.314 43.1833Z" fill="#DAE6EB"/>
<g opacity="0.276135">
<path fill-rule="evenodd" clip-rule="evenodd" d="M21 339.389H208.282V328.183H21V339.389Z" fill="#A6CBE3"/>
<path fill-rule="evenodd" clip-rule="evenodd" d="M127.363 328.396H49.204L38 294.183L127.363 328.396Z" fill="#DAE6EB"/>
<path fill-rule="evenodd" clip-rule="evenodd" d="M127.516 328.758L53.526 300.432L47 260.183L127.516 328.758Z" fill="#A6CBE3"/>
<path fill-rule="evenodd" clip-rule="evenodd" d="M127.212 328.381L67.261 277.32L61 226.183L140.337 328.381H127.212Z" fill="#DAE6EB"/>
<path fill-rule="evenodd" clip-rule="evenodd" d="M140.773 328.392L71.728 239.45L68 180.183L154.415 328.392H140.773Z" fill="#A6CBE3"/>
<path fill-rule="evenodd" clip-rule="evenodd" d="M154.17 328.301L84 207.954L91.572 144.183L165.008 328.301H154.17Z" fill="#DAE6EB"/>
<path fill-rule="evenodd" clip-rule="evenodd" d="M165.333 328.621L104 174.85L117.555 102.183L175.951 328.621H165.333Z" fill="#A6CBE3"/>
<path fill-rule="evenodd" clip-rule="evenodd" d="M176.057 328.594L136 173.27L157.403 96.1833L185.422 328.594H176.057Z" fill="#FEFEFE"/>
<path fill-rule="evenodd" clip-rule="evenodd" d="M227.155 298.649C227.155 291.626 230.346 285.347 235.356 281.183C226.947 284.508 221 292.711 221 302.301C221 314.839 231.164 325.003 243.701 325.003C249.214 325.003 254.268 323.037 258.202 319.767C255.62 320.789 252.803 321.353 249.857 321.353C237.318 321.353 227.155 311.188 227.155 298.649Z" fill="#91B5CD"/>
<path fill-rule="evenodd" clip-rule="evenodd" d="M266.248 302.885C266.248 290.348 256.084 280.183 243.547 280.183C240.6 280.183 237.784 280.745 235.201 281.767C230.191 285.93 227 292.21 227 299.233C227 311.772 237.163 321.936 249.702 321.936C252.649 321.936 255.465 321.372 258.047 320.351C263.058 316.187 266.248 309.908 266.248 302.885Z" fill="#A6CBE3"/>
<path fill-rule="evenodd" clip-rule="evenodd" d="M254.827 310.222C254.507 309.948 254.025 309.982 253.748 310.302L245.071 320.327V301.493L249.76 294.488C249.994 294.138 249.902 293.664 249.552 293.428C249.2 293.192 248.726 293.287 248.49 293.639L245.071 298.745V290.328C245.071 289.696 244.556 289.183 243.926 289.183C243.291 289.183 242.778 289.696 242.778 290.328V307.575L236.364 299.431C236.103 299.099 235.623 299.042 235.291 299.301C234.96 299.563 234.903 300.045 235.163 300.375L242.778 310.045V338.265C242.778 338.898 243.291 339.411 243.926 339.411C244.556 339.411 245.071 338.898 245.071 338.265V322.663L254.906 311.301C255.181 310.983 255.146 310.501 254.827 310.222Z" fill="#91B5CD"/>
</g>
<path fill-rule="evenodd" clip-rule="evenodd" d="M317.906 346.934H308.287C306.631 346.934 305.289 345.593 305.289 343.936V315.834C305.289 314.179 306.631 312.836 308.287 312.836H317.906C319.562 312.836 320.904 314.179 320.904 315.834V343.936C320.904 345.593 319.562 346.934 317.906 346.934Z" fill="#0B1829"/>
<path fill-rule="evenodd" clip-rule="evenodd" d="M222.303 346.934H212.685C211.028 346.934 209.686 345.593 209.686 343.936V315.834C209.686 314.179 211.028 312.836 212.685 312.836H222.303C223.959 312.836 225.301 314.179 225.301 315.834V343.936C225.301 345.593 223.959 346.934 222.303 346.934Z" fill="#0B1829"/>
<path fill-rule="evenodd" clip-rule="evenodd" d="M232.164 336.419H296.809V328.053H232.164V336.419Z" fill="#231F20"/>
<path fill-rule="evenodd" clip-rule="evenodd" d="M234.607 281.447L238.616 269.834C239.151 268.279 240.578 267.209 242.217 267.113L264.18 265.896C264.919 265.851 265.671 265.851 266.41 265.896L288.373 267.113C290.012 267.209 291.439 268.279 291.974 269.834L295.983 281.447H234.607ZM319.049 297.208L316.378 293.397C316.378 292.218 315.99 291.065 315.263 290.127C315.231 290.083 315.2 290.038 315.161 289.994L314.849 289.611L312.344 286.558C311.643 285.704 311.063 284.761 310.61 283.754L303.275 267.316C301.796 263.996 298.763 261.594 295.148 260.866C289.425 259.707 279.521 258.279 265.295 258.184C251.069 258.279 241.165 259.707 235.441 260.866C231.828 261.594 228.794 263.996 227.315 267.316L219.979 283.754C219.527 284.761 218.947 285.704 218.246 286.558L215.741 289.611L215.429 289.994C215.39 290.038 215.359 290.083 215.327 290.127C214.6 291.065 214.211 292.218 214.211 293.397L211.541 297.208C209.521 300.095 208.609 303.607 208.972 307.113L211.63 332.97C211.834 334.927 213.485 336.418 215.455 336.418H236.684C238.233 336.418 239.705 335.736 240.713 334.557L240.751 334.506H289.84L289.878 334.557C290.885 335.736 292.357 336.418 293.906 336.418H315.136C317.105 336.418 318.756 334.927 318.96 332.97L321.618 307.113C321.98 303.607 321.069 300.095 319.049 297.208Z" fill="#DCDDE7"/>
<path fill-rule="evenodd" clip-rule="evenodd" d="M321.618 307.113L318.96 332.97C318.756 334.927 317.105 336.419 315.136 336.419H293.906C292.357 336.419 290.884 335.736 289.878 334.557L289.839 334.506H265.295V281.447H295.984L291.975 269.834C291.439 268.279 290.011 267.209 288.373 267.113L266.41 265.896C266.041 265.877 265.671 265.864 265.295 265.864V258.184C279.52 258.279 289.425 259.707 295.149 260.867C298.762 261.594 301.796 263.996 303.275 267.316L310.611 283.754C311.063 284.761 311.643 285.705 312.344 286.558L314.849 289.611L315.161 289.994C315.199 290.038 315.232 290.083 315.263 290.127C315.99 291.065 316.378 292.218 316.378 293.397L319.049 297.208C321.07 300.095 321.981 303.607 321.618 307.113Z" fill="#C8C9D9"/>
<path fill-rule="evenodd" clip-rule="evenodd" d="M234.607 281.447L238.616 269.834C239.151 268.279 240.578 267.209 242.217 267.113L264.18 265.896C264.919 265.851 265.671 265.851 266.411 265.896L288.373 267.113C290.012 267.209 291.439 268.279 291.974 269.834L295.983 281.447H234.607ZM300.681 267.973C299.584 265.557 297.284 263.913 294.645 263.665C287.379 262.983 272.675 261.689 265.295 261.689C257.914 261.689 243.211 262.983 235.945 263.665C233.307 263.913 231.006 265.557 229.91 267.973L222.433 284.474C222.433 284.474 226.309 284.27 231.981 284.015C238.278 283.729 246.793 283.384 254.683 283.193C258.469 283.098 262.115 283.04 265.295 283.04C268.475 283.04 272.121 283.098 275.907 283.193C283.797 283.384 292.313 283.729 298.609 284.015C304.282 284.27 308.157 284.474 308.157 284.474L300.681 267.973Z" fill="#0E1133"/>
<path fill-rule="evenodd" clip-rule="evenodd" d="M268.402 295.747C268.402 296.605 267.011 297.301 265.295 297.301C263.579 297.301 262.188 296.605 262.188 295.747C262.188 294.889 263.579 294.194 265.295 294.194C267.011 294.194 268.402 294.889 268.402 295.747Z" fill="#0B1829"/>
<path fill-rule="evenodd" clip-rule="evenodd" d="M222.265 280.757C221.653 279.799 219.158 281.072 218.016 279.907C217.215 279.089 217.994 278.003 217.379 277.144C215.885 275.063 207.926 276.737 207.5 279.482C207.23 281.22 210.053 282.924 210.686 283.306C214.526 285.623 220.097 285.234 221.84 282.668C221.902 282.577 222.679 281.406 222.265 280.757Z" fill="#DCDDE7"/>
<path fill-rule="evenodd" clip-rule="evenodd" d="M308.325 280.757C308.936 279.799 311.433 281.072 312.575 279.907C313.375 279.089 312.596 278.003 313.212 277.144C314.704 275.063 322.665 276.737 323.091 279.482C323.36 281.22 320.537 282.924 319.904 283.306C316.065 285.623 310.493 285.234 308.75 282.668C308.688 282.577 307.911 281.406 308.325 280.757Z" fill="#C8C9D9"/>
<path fill-rule="evenodd" clip-rule="evenodd" d="M265.295 323.83H237.889L241.235 331.479H265.295H289.355L292.701 323.83H265.295Z" fill="#0B1829"/>
<path fill-rule="evenodd" clip-rule="evenodd" d="M315.263 290.128L310.84 295.864C308.661 298.7 305.225 300.389 301.643 300.389H228.947C225.365 300.389 221.93 298.7 219.75 295.864L215.327 290.128C215.358 290.083 215.391 290.039 215.429 289.994L215.741 289.612L220.253 295.475C222.312 298.152 225.563 299.752 228.947 299.752H301.643C305.027 299.752 308.278 298.152 310.337 295.475L314.849 289.612L315.161 289.994C315.199 290.039 315.232 290.083 315.263 290.128Z" fill="#DCDDE7"/>
<path fill-rule="evenodd" clip-rule="evenodd" d="M247.16 300.625H260.589C262.291 300.625 263.67 302.004 263.67 303.705V306.733C263.67 309.109 261.744 311.035 259.367 311.035H253.898C253.898 311.035 246.152 312.215 243.631 305.601C242.714 303.193 244.584 300.625 247.16 300.625Z" fill="#0B1829"/>
<path fill-rule="evenodd" clip-rule="evenodd" d="M237.63 308.696H229.408C228.344 308.696 227.286 308.912 226.304 309.321C225.323 309.735 224.271 309.945 223.22 309.945C223.003 309.945 222.786 309.939 222.576 309.92C222.544 309.92 222.518 309.913 222.487 309.913C218.899 309.588 212.2 308.116 212.258 301.634L216.349 299.537C217.771 298.804 219.344 298.428 220.944 298.434C221.805 298.434 222.844 298.453 223.997 298.486C227.528 298.581 232.098 298.843 235.667 299.518C236.865 299.747 237.751 300.722 237.929 301.927C237.981 302.24 238.057 302.545 238.178 302.8C238.516 303.514 239.306 304.999 239.491 306.637C239.619 307.74 238.739 308.696 237.63 308.696Z" fill="white"/>
<path fill-rule="evenodd" clip-rule="evenodd" d="M237.63 308.696H229.408C228.344 308.696 227.286 308.912 226.304 309.321C225.323 309.735 224.271 309.945 223.22 309.945C223.003 309.945 222.786 309.939 222.576 309.92L221.67 308.69C219.899 306.268 220.052 302.941 222.041 300.691L223.997 298.486C227.528 298.581 232.098 298.843 235.667 299.518C236.865 299.747 237.751 300.722 237.929 301.927C237.981 302.24 238.057 302.545 238.178 302.8C238.516 303.514 239.306 304.999 239.491 306.637C239.619 307.74 238.739 308.696 237.63 308.696Z" fill="#0B1829"/>
<path fill-rule="evenodd" clip-rule="evenodd" d="M228.589 304.542C228.589 306.28 227.18 307.689 225.442 307.689C223.704 307.689 222.296 306.28 222.296 304.542C222.296 302.804 223.704 301.395 225.442 301.395C227.18 301.395 228.589 302.804 228.589 304.542Z" fill="white"/>
<path fill-rule="evenodd" clip-rule="evenodd" d="M235.765 304.542C235.765 305.604 234.904 306.465 233.842 306.465C232.78 306.465 231.919 305.604 231.919 304.542C231.919 303.48 232.78 302.619 233.842 302.619C234.904 302.619 235.765 303.48 235.765 304.542Z" fill="white"/>
<path fill-rule="evenodd" clip-rule="evenodd" d="M283.43 300.676H270.001C268.299 300.676 266.92 302.055 266.92 303.757V306.784C266.92 309.16 268.846 311.086 271.223 311.086H276.692C276.692 311.086 284.438 312.267 286.959 305.652C287.876 303.244 286.006 300.676 283.43 300.676Z" fill="#0B1829"/>
<path fill-rule="evenodd" clip-rule="evenodd" d="M292.96 308.747H301.182C302.246 308.747 303.305 308.963 304.286 309.371C305.267 309.786 306.319 309.996 307.37 309.996C307.588 309.996 307.804 309.989 308.014 309.971C308.047 309.971 308.072 309.964 308.104 309.964C311.692 309.639 318.39 308.167 318.333 301.685L314.242 299.588C312.82 298.855 311.246 298.479 309.646 298.485C308.785 298.485 307.747 298.505 306.593 298.537C303.062 298.632 298.493 298.893 294.924 299.569C293.725 299.798 292.839 300.774 292.661 301.978C292.609 302.291 292.533 302.596 292.412 302.851C292.074 303.565 291.284 305.05 291.099 306.688C290.972 307.791 291.851 308.747 292.96 308.747Z" fill="white"/>
<path fill-rule="evenodd" clip-rule="evenodd" d="M292.96 308.747H301.182C302.246 308.747 303.305 308.963 304.286 309.371C305.267 309.786 306.319 309.996 307.37 309.996C307.588 309.996 307.804 309.989 308.014 309.971L308.92 308.741C310.691 306.319 310.538 302.992 308.55 300.741L306.593 298.537C303.062 298.632 298.493 298.893 294.924 299.569C293.725 299.798 292.839 300.774 292.661 301.978C292.609 302.291 292.533 302.596 292.412 302.851C292.074 303.565 291.284 305.05 291.099 306.688C290.972 307.791 291.851 308.747 292.96 308.747Z" fill="#0B1829"/>
<path fill-rule="evenodd" clip-rule="evenodd" d="M302.001 304.593C302.001 306.331 303.41 307.74 305.148 307.74C306.886 307.74 308.295 306.331 308.295 304.593C308.295 302.855 306.886 301.446 305.148 301.446C303.41 301.446 302.001 302.855 302.001 304.593Z" fill="white"/>
<path fill-rule="evenodd" clip-rule="evenodd" d="M294.825 304.593C294.825 305.655 295.686 306.516 296.748 306.516C297.81 306.516 298.671 305.655 298.671 304.593C298.671 303.531 297.81 302.67 296.748 302.67C295.686 302.67 294.825 303.531 294.825 304.593Z" fill="white"/>
<path fill-rule="evenodd" clip-rule="evenodd" d="M247.343 321.653H283.247V315.598H247.343V321.653Z" fill="#0B1829"/>
<path fill-rule="evenodd" clip-rule="evenodd" d="M217.122 323.83H233.018C233.491 323.83 233.917 324.116 234.097 324.552L234.515 325.565C234.832 326.332 234.268 327.177 233.437 327.177H221.05C219.865 327.177 218.766 326.556 218.154 325.542L217.122 323.83Z" fill="#0B1829"/>
<path fill-rule="evenodd" clip-rule="evenodd" d="M220.282 328.69H234.987C235.756 328.69 236.381 329.315 236.381 330.085C236.381 330.854 235.756 331.479 234.987 331.479H226.735C225.229 331.479 223.758 331.03 222.509 330.189L220.282 328.69Z" fill="#0B1829"/>
<path fill-rule="evenodd" clip-rule="evenodd" d="M313.468 323.83H297.572C297.099 323.83 296.673 324.116 296.493 324.552L296.075 325.565C295.758 326.332 296.322 327.177 297.154 327.177H309.54C310.726 327.177 311.824 326.556 312.436 325.542L313.468 323.83Z" fill="#0B1829"/>
<path fill-rule="evenodd" clip-rule="evenodd" d="M310.308 328.69H295.603C294.833 328.69 294.209 329.315 294.209 330.085C294.209 330.854 294.833 331.479 295.603 331.479H303.855C305.361 331.479 306.832 331.03 308.082 330.189L310.308 328.69Z" fill="#0B1829"/>
<path fill-rule="evenodd" clip-rule="evenodd" d="M228.966 312.796C228.966 313.17 228.431 313.473 227.771 313.473C227.111 313.473 226.576 313.17 226.576 312.796C226.576 312.423 227.111 312.119 227.771 312.119C228.431 312.119 228.966 312.423 228.966 312.796Z" fill="#888E9B"/>
<path fill-rule="evenodd" clip-rule="evenodd" d="M305.148 312.796C305.148 313.17 304.613 313.473 303.953 313.473C303.293 313.473 302.758 313.17 302.758 312.796C302.758 312.423 303.293 312.119 303.953 312.119C304.613 312.119 305.148 312.423 305.148 312.796Z" fill="#888E9B"/>
<path fill-rule="evenodd" clip-rule="evenodd" d="M288.373 267.115L266.412 265.894C265.668 265.853 264.922 265.853 264.178 265.894L242.217 267.115C240.575 267.206 239.153 268.281 238.616 269.835L234.604 281.447H265.295H295.985L291.974 269.835C291.437 268.281 290.015 267.206 288.373 267.115Z" fill="#DCDDE7"/>
<path fill-rule="evenodd" clip-rule="evenodd" d="M254.683 279.165V283.193C246.793 283.384 238.278 283.728 231.981 284.015V279.165C231.981 275.188 235.231 271.937 239.202 271.937H247.456C251.432 271.937 254.683 275.188 254.683 279.165Z" fill="#0E1133"/>
<path fill-rule="evenodd" clip-rule="evenodd" d="M298.609 279.165V284.015C292.312 283.728 283.797 283.384 275.907 283.193V279.165C275.907 275.188 279.157 271.937 283.134 271.937H291.388C295.358 271.937 298.609 275.188 298.609 279.165Z" fill="#0E1133"/>
<path fill-rule="evenodd" clip-rule="evenodd" d="M270.186 269.582H267.287V267.989H271.616V264.642H258.975V267.989H263.304V269.582H260.404C258.969 269.582 257.807 270.745 257.807 272.18V272.416H272.784V272.18C272.784 270.745 271.621 269.582 270.186 269.582Z" fill="#0E1133"/>
<path fill-rule="evenodd" clip-rule="evenodd" d="M355 245.183C355 246.288 354.105 247.183 353 247.183C351.895 247.183 351 246.288 351 245.183C351 244.079 351.895 243.183 353 243.183C354.105 243.183 355 244.079 355 245.183Z" fill="black"/>
<path fill-rule="evenodd" clip-rule="evenodd" d="M352 246.183C352 247.288 351.105 248.183 350 248.183C348.895 248.183 348 247.288 348 246.183C348 245.079 348.895 244.183 350 244.183C351.105 244.183 352 245.079 352 246.183Z" fill="black"/>
<path fill-rule="evenodd" clip-rule="evenodd" d="M347 303.183C347 304.288 344.985 305.183 342.5 305.183C340.015 305.183 338 304.288 338 303.183C338 302.079 340.015 301.183 342.5 301.183C344.985 301.183 347 302.079 347 303.183Z" fill="#E83434"/>
<path fill-rule="evenodd" clip-rule="evenodd" d="M358 340.109L357.221 344.183L355 343.868V339.183L358 340.109Z" fill="white"/>
<mask id="mask0_29_143" style="mask-type:luminance" maskUnits="userSpaceOnUse" x="354" y="343" width="12" height="4">
<path fill-rule="evenodd" clip-rule="evenodd" d="M354.245 343.378H365.977V346.783H354.245V343.378Z" fill="white"/>
</mask>
<g mask="url(#mask0_29_143)">
<path fill-rule="evenodd" clip-rule="evenodd" d="M355.295 343.378C355.295 343.378 353.786 344.833 354.386 346.114C354.986 347.395 365.865 346.444 365.865 346.444C365.865 346.444 366.262 346.238 365.559 345.992L360.485 344.436C360.485 344.436 358.341 343.472 357.233 343.62C356.309 343.745 355.295 343.378 355.295 343.378Z" fill="black"/>
</g>
<path fill-rule="evenodd" clip-rule="evenodd" d="M346 340.109L346.779 344.183L349 343.868V339.183L346 340.109Z" fill="white"/>
<mask id="mask1_29_143" style="mask-type:luminance" maskUnits="userSpaceOnUse" x="338" y="343" width="12" height="4">
<path fill-rule="evenodd" clip-rule="evenodd" d="M338.349 343.378H349.629V346.783H338.349V343.378Z" fill="white"/>
</mask>
<g mask="url(#mask1_29_143)">
<path fill-rule="evenodd" clip-rule="evenodd" d="M348.62 343.378C348.62 343.378 350.07 344.833 349.494 346.114C348.917 347.395 338.456 346.444 338.456 346.444C338.456 346.444 338.075 346.238 338.75 345.992L343.63 344.436C343.63 344.436 345.691 343.472 346.757 343.62C347.645 343.745 348.62 343.378 348.62 343.378Z" fill="black"/>
</g>
<path fill-rule="evenodd" clip-rule="evenodd" d="M369 296.08C369 296.08 365.798 326.075 359.079 341.183H354.004L353.133 315.162L350.449 341.183H345.272C345.272 341.183 336.722 321.594 339.587 298.166C342.452 274.737 369 296.08 369 296.08Z" fill="#0B1829"/>
<path fill-rule="evenodd" clip-rule="evenodd" d="M368 304.305C368 304.305 365.126 301.533 361.539 304.704C357.951 307.874 361.949 312.25 360.58 315.897C359.211 319.543 360.23 323.592 364.323 324.183C364.323 324.183 367.131 314.105 368 304.305Z" fill="#050A12"/>
<path fill-rule="evenodd" clip-rule="evenodd" d="M339 312.144C339 312.144 342.753 309.526 347.134 312.934C351.516 316.342 347.11 321.96 344.79 324.17C342.469 326.381 346.348 331.17 342.392 332.183C342.392 332.183 339.253 322.637 339 312.144Z" fill="#050A12"/>
<path fill-rule="evenodd" clip-rule="evenodd" d="M337.524 302.546C337.524 302.546 341.251 296.322 352.12 305.658C362.989 314.993 368.268 306.991 368.268 306.991C368.268 306.991 380.538 270.073 353.072 265.183C353.072 265.183 333.591 265.722 337.524 302.546Z" fill="#FF4A4A"/>
<path fill-rule="evenodd" clip-rule="evenodd" d="M358 268.183C358 269.288 355.985 270.183 353.5 270.183C351.014 270.183 349 269.288 349 268.183C349 267.079 351.014 266.183 353.5 266.183C355.985 266.183 358 267.079 358 268.183Z" fill="#E83434"/>
<path fill-rule="evenodd" clip-rule="evenodd" d="M361 258.183C361 259.288 360.105 260.183 359 260.183C357.895 260.183 357 259.288 357 258.183C357 257.079 357.895 256.183 359 256.183C360.105 256.183 361 257.079 361 258.183Z" fill="black"/>
<path fill-rule="evenodd" clip-rule="evenodd" d="M360 260.184C360 261.288 359.105 262.183 358 262.183C356.895 262.183 356 261.288 356 260.184C356 259.079 356.895 258.183 358 258.183C359.105 258.183 360 259.079 360 260.184Z" fill="black"/>
<path fill-rule="evenodd" clip-rule="evenodd" d="M364 256.184C364 257.288 363.105 258.183 362 258.183C360.895 258.183 360 257.288 360 256.184C360 255.079 360.895 254.183 362 254.183C363.105 254.183 364 255.079 364 256.184Z" fill="black"/>
<path fill-rule="evenodd" clip-rule="evenodd" d="M366 252.183C366 253.288 365.105 254.183 364 254.183C362.895 254.183 362 253.288 362 252.183C362 251.079 362.895 250.183 364 250.183C365.105 250.183 366 251.079 366 252.183Z" fill="black"/>
<path fill-rule="evenodd" clip-rule="evenodd" d="M367 250.183C367 251.288 366.105 252.183 365 252.183C363.895 252.183 363 251.288 363 250.183C363 249.079 363.895 248.183 365 248.183C366.105 248.183 367 249.079 367 250.183Z" fill="black"/>
<path fill-rule="evenodd" clip-rule="evenodd" d="M346.048 254.483C345.832 257.145 346.212 259.619 350.074 261.889C350.074 261.889 351.916 264.183 350.95 266.925C349.984 269.666 357.923 270.39 357.219 266.37C357.173 266.107 357.14 265.843 357.121 265.578C356.841 261.802 359.155 257.948 360.792 255.73C362.542 253.357 362.609 247.973 359.53 245.855C358.32 245.024 355.056 244.952 352.837 245.706C349.072 246.985 346.362 250.615 346.048 254.483Z" fill="#FFCB9C"/>
<path fill-rule="evenodd" clip-rule="evenodd" d="M351.133 248.183L349 253.152L352 253.183L351.133 248.183Z" fill="#FF6252"/>
<path fill-rule="evenodd" clip-rule="evenodd" d="M360.227 254.209C360.227 254.209 361.533 253.92 361.95 255.294C362.367 256.669 360.074 259.188 359.223 257.757C358.373 256.326 360.227 254.209 360.227 254.209Z" fill="#FFCB9C"/>
<path fill-rule="evenodd" clip-rule="evenodd" d="M348.968 249.773C348.871 250.045 348.582 250.225 348.324 250.175C348.065 250.126 347.935 249.866 348.032 249.594C348.129 249.323 348.418 249.142 348.676 249.192C348.934 249.241 349.065 249.501 348.968 249.773Z" fill="black"/>
<path fill-rule="evenodd" clip-rule="evenodd" d="M354.968 250.773C354.871 251.044 354.582 251.224 354.324 251.175C354.065 251.125 353.935 250.866 354.032 250.594C354.13 250.323 354.418 250.142 354.676 250.192C354.934 250.241 355.065 250.501 354.968 250.773Z" fill="black"/>
<path fill-rule="evenodd" clip-rule="evenodd" d="M351.157 255.825C351.157 255.825 350.293 255.48 349.564 255.49C348.835 255.5 348.134 255.706 348.011 256.378C347.889 257.05 348.807 257.528 349.917 257.915C350.572 258.143 352.766 258.374 353.935 257.934C355.103 257.495 355.711 257.151 355.95 256.562C356.189 255.972 355.531 255.391 354.892 255.234C354.254 255.077 353.61 255.317 353.313 255.5C353.015 255.682 352.289 256.126 351.157 255.825Z" fill="#CE3E3E"/>
<path fill-rule="evenodd" clip-rule="evenodd" d="M349 258.481C349 258.481 349.71 258.1 350.871 258.2C352.032 258.3 352.487 258.654 353 259.031C353 259.031 351.711 259.35 350.451 259.065C349.429 258.834 349 258.481 349 258.481Z" fill="#FF7D7D"/>
<path fill-rule="evenodd" clip-rule="evenodd" d="M350 249.683C350 251.064 348.881 252.183 347.5 252.183C346.12 252.183 345 251.064 345 249.683C345 248.303 346.12 247.183 347.5 247.183C348.881 247.183 350 248.303 350 249.683Z" stroke="#1D1D1B" stroke-width="0.5"/>
<path fill-rule="evenodd" clip-rule="evenodd" d="M357 249.683C357 251.064 355.88 252.183 354.5 252.183C353.12 252.183 352 251.064 352 249.683C352 248.303 353.12 247.183 354.5 247.183C355.88 247.183 357 248.303 357 249.683Z" stroke="#1D1D1B" stroke-width="0.5"/>
<path d="M350 248.183H351" stroke="#1D1D1B"/>
<path d="M362 251.183L357 249.183" stroke="#1D1D1B" stroke-width="0.5"/>
<path fill-rule="evenodd" clip-rule="evenodd" d="M358 242.183C358 243.288 357.105 244.183 356 244.183C354.895 244.183 354 243.288 354 242.183C354 241.079 354.895 240.183 356 240.183C357.105 240.183 358 241.079 358 242.183Z" fill="black"/>
<path fill-rule="evenodd" clip-rule="evenodd" d="M355 244.183C355 245.288 354.105 246.183 353 246.183C351.895 246.183 351 245.288 351 244.183C351 243.079 351.895 242.183 353 242.183C354.105 242.183 355 243.079 355 244.183Z" fill="black"/>
<path fill-rule="evenodd" clip-rule="evenodd" d="M361 245.183C361 246.288 360.105 247.183 359 247.183C357.895 247.183 357 246.288 357 245.183C357 244.079 357.895 243.183 359 243.183C360.105 243.183 361 244.079 361 245.183Z" fill="black"/>
<path fill-rule="evenodd" clip-rule="evenodd" d="M361 247.183C361 248.288 360.105 249.183 359 249.183C357.895 249.183 357 248.288 357 247.183C357 246.079 357.895 245.183 359 245.183C360.105 245.183 361 246.079 361 247.183Z" fill="black"/>
<path fill-rule="evenodd" clip-rule="evenodd" d="M364 246.183C364 247.288 363.105 248.183 362 248.183C360.895 248.183 360 247.288 360 246.183C360 245.079 360.895 244.183 362 244.183C363.105 244.183 364 245.079 364 246.183Z" fill="black"/>
<path fill-rule="evenodd" clip-rule="evenodd" d="M366 247.183C366 248.288 365.105 249.183 364 249.183C362.895 249.183 362 248.288 362 247.183C362 246.079 362.895 245.183 364 245.183C365.105 245.183 366 246.079 366 247.183Z" fill="black"/>
<path fill-rule="evenodd" clip-rule="evenodd" d="M362 242.183C362 243.288 361.105 244.183 360 244.183C358.895 244.183 358 243.288 358 242.183C358 241.079 358.895 240.183 360 240.183C361.105 240.183 362 241.079 362 242.183Z" fill="black"/>
<path fill-rule="evenodd" clip-rule="evenodd" d="M360 241.183C360 242.288 359.105 243.183 358 243.183C356.895 243.183 356 242.288 356 241.183C356 240.079 356.895 239.183 358 239.183C359.105 239.183 360 240.079 360 241.183Z" fill="black"/>
<path fill-rule="evenodd" clip-rule="evenodd" d="M356 241.184C356 242.288 355.105 243.183 354 243.183C352.895 243.183 352 242.288 352 241.184C352 240.079 352.895 239.183 354 239.183C355.105 239.183 356 240.079 356 241.184Z" fill="black"/>
<path fill-rule="evenodd" clip-rule="evenodd" d="M353 244.183C353 245.288 352.105 246.183 351 246.183C349.895 246.183 349 245.288 349 244.183C349 243.079 349.895 242.183 351 242.183C352.105 242.183 353 243.079 353 244.183Z" fill="black"/>
<path fill-rule="evenodd" clip-rule="evenodd" d="M364 249.184C364 250.288 363.105 251.183 362 251.183C360.895 251.183 360 250.288 360 249.184C360 248.079 360.895 247.183 362 247.183C363.105 247.183 364 248.079 364 249.184Z" fill="black"/>
<path fill-rule="evenodd" clip-rule="evenodd" d="M363 252.184C363 253.288 362.105 254.183 361 254.183C359.895 254.183 359 253.288 359 252.184C359 251.079 359.895 250.183 361 250.183C362.105 250.183 363 251.079 363 252.184Z" fill="black"/>
<path fill-rule="evenodd" clip-rule="evenodd" d="M350.094 272.946L348.03 268.361C348.03 268.361 347.846 267.838 348.392 267.775C348.937 267.713 352.909 267.183 352.909 267.183C352.909 267.183 353.334 267.195 353.609 267.919C353.885 268.644 356 274.183 356 274.183L350.094 272.946Z" fill="#010000"/>
<path fill-rule="evenodd" clip-rule="evenodd" d="M357.999 277.933C357.999 277.933 358.129 272.059 354.467 272.185L354.847 273.231C354.847 273.231 355.954 273.899 355.637 274.311C355.322 274.723 354.605 274.51 353.804 274.233C353.003 273.955 349.815 273.351 349.544 273.384C349.272 273.417 348.824 273.635 349.072 274.263L350.136 274.674C350.136 274.674 350.419 274.793 350.163 274.984C349.908 275.176 349.924 275.304 349.913 275.523C349.902 275.741 350.36 275.91 350.399 276.033C350.438 276.155 350.348 276.326 350.129 276.446C350.008 276.514 350.103 276.906 350.472 276.914C350.841 276.921 350.657 277.407 350.645 277.558C350.634 277.709 350.504 278.083 352.529 278.214C354.553 278.344 356.754 282.183 356.754 282.183L357.999 277.933Z" fill="#FFCB9C"/>
<path fill-rule="evenodd" clip-rule="evenodd" d="M346.488 281.859C346.487 280.757 347.321 277.988 347.415 277.309C347.509 276.63 348.375 274.927 349.267 274.896C350.148 274.866 349.403 273.883 349.403 273.883C349.403 273.883 349.902 274.031 350.023 273.291C350.143 272.552 349.301 272.268 349.301 272.268C349.301 272.268 349.614 272.085 349.886 271.434C350.113 270.889 349.325 270.782 349.058 270.761C349.539 270.604 350.816 270.187 351.364 270.047C352.046 269.871 352.22 269.251 351.688 269.19C351.158 269.128 348.079 269.542 348.079 269.542L348.081 269.544C347.266 269.56 346.118 269.962 345.101 271.132C343.541 272.926 344.561 273.539 344.04 277.174C343.868 278.376 343.203 281.151 343 282.183" fill="#FFCB9C"/>
<path fill-rule="evenodd" clip-rule="evenodd" d="M356 280.416C356 280.416 362.511 292.455 370.601 288.318C376.877 285.108 372.54 274.441 372.54 274.441L366.352 274.183C366.352 274.183 368.665 279.144 368.293 281.269C367.921 283.395 361.209 282.772 358.233 277.697L356 280.416Z" fill="#FFCB9C"/>
<path fill-rule="evenodd" clip-rule="evenodd" d="M343.608 277.128C343.608 277.128 340.806 287.437 339.607 282.343C338.547 277.836 341.166 272.37 341.166 272.37L337.932 272.183C337.87 272.481 337.765 272.766 337.613 273.017C337.301 273.528 336.658 273.93 336.079 274.053C335.593 274.157 335.137 274.094 334.701 273.93C331.005 291.006 343.06 292.158 344.453 288.458C345.897 284.625 347 277.262 347 277.262L343.608 277.128Z" fill="#FFCB9C"/>
<path fill-rule="evenodd" clip-rule="evenodd" d="M351 265.187C349.666 265.146 336.731 265.266 333 276.561L339.923 278.183L342.83 274.785C342.697 274.368 342.68 273.924 342.825 273.515C343.12 272.681 343.583 271.994 344.043 271.246C344.296 270.837 344.658 270.547 345.068 270.357C345.307 270.06 345.629 269.821 346.033 269.674C346.511 269.156 347.185 268.885 347.885 268.873L348.435 268.229C348.449 267.639 349.112 267.244 349.527 266.81C349.792 266.072 350.107 265.508 351 265.187Z" fill="#FF4A4A"/>
<mask id="mask2_29_143" style="mask-type:luminance" maskUnits="userSpaceOnUse" x="357" y="265" width="18" height="13">
<path fill-rule="evenodd" clip-rule="evenodd" d="M357.466 265.643H374.834V277.954H357.466V265.643Z" fill="white"/>
</mask>
<g mask="url(#mask2_29_143)">
<path fill-rule="evenodd" clip-rule="evenodd" d="M357.466 265.65C357.409 265.622 370.918 265.25 374.835 276.922L367.835 277.954L357.466 265.65Z" fill="#FF4A4A"/>
</g>
<path fill-rule="evenodd" clip-rule="evenodd" d="M339.535 246.016C339.592 247.345 338.517 248.466 337.133 248.521C335.75 248.576 334.581 247.544 334.524 246.216C334.466 244.887 335.541 243.766 336.925 243.711C338.309 243.656 339.477 244.687 339.535 246.016Z" fill="white"/>
<path fill-rule="evenodd" clip-rule="evenodd" d="M340.766 242.61C340.573 242.618 340.375 242.566 340.206 242.449C339.216 241.766 338.049 241.432 336.828 241.48C335.803 241.521 334.817 241.838 333.979 242.396C333.571 242.667 333.01 242.569 332.729 242.178C332.446 241.787 332.548 241.249 332.956 240.978C334.074 240.234 335.388 239.812 336.754 239.757C338.38 239.692 339.935 240.139 341.254 241.048C341.657 241.327 341.748 241.865 341.459 242.252C341.291 242.475 341.033 242.6 340.766 242.61Z" fill="white"/>
<path fill-rule="evenodd" clip-rule="evenodd" d="M343.733 239.259C343.539 239.267 343.342 239.215 343.172 239.098C341.193 237.733 338.859 237.064 336.42 237.161C334.369 237.243 332.399 237.876 330.72 238.992C330.311 239.262 329.752 239.164 329.469 238.774C329.187 238.382 329.289 237.845 329.697 237.574C331.656 236.272 333.954 235.533 336.345 235.438C339.19 235.325 341.912 236.106 344.22 237.697C344.623 237.975 344.715 238.514 344.425 238.901C344.258 239.125 343.999 239.249 343.733 239.259Z" fill="white"/>
<path fill-rule="evenodd" clip-rule="evenodd" d="M346.732 235.741C346.538 235.748 346.34 235.696 346.17 235.579C343.191 233.524 339.674 232.515 336 232.662C332.911 232.785 329.943 233.738 327.415 235.419C327.006 235.69 326.447 235.593 326.165 235.202C325.882 234.81 325.984 234.273 326.392 234.002C329.199 232.135 332.496 231.075 335.925 230.939C340.005 230.776 343.91 231.896 347.218 234.179C347.622 234.457 347.714 234.995 347.424 235.382C347.256 235.606 346.997 235.73 346.732 235.741Z" fill="white"/>
<mask id="mask3_29_143" style="mask-type:luminance" maskUnits="userSpaceOnUse" x="323" y="226" width="28" height="7">
<path fill-rule="evenodd" clip-rule="evenodd" d="M323 226.438H350.285V232.146H323V226.438Z" fill="white"/>
</mask>
<g mask="url(#mask3_29_143)">
<path fill-rule="evenodd" clip-rule="evenodd" d="M349.423 232.145C349.23 232.154 349.032 232.101 348.862 231.984C344.978 229.305 340.393 227.99 335.603 228.181C331.577 228.341 327.706 229.585 324.41 231.776C324.001 232.047 323.442 231.949 323.16 231.558C322.877 231.166 322.979 230.629 323.387 230.358C326.963 227.98 331.162 226.632 335.528 226.457C340.724 226.25 345.697 227.677 349.91 230.584C350.313 230.861 350.406 231.4 350.116 231.787C349.948 232.011 349.689 232.135 349.423 232.145Z" fill="white"/>
</g>
</svg>
