<svg width="144" height="162" viewBox="0 0 144 162" fill="none" xmlns="http://www.w3.org/2000/svg">
<g filter="url(#filter0_d_29_142)">
<circle cx="69.537" cy="68" r="39" fill="#F38E55"/>
<g filter="url(#filter1_f_29_142)">
<path d="M49.9462 31.7161C43.1696 35.3908 37.634 40.9914 34.0386 47.8104C30.4432 54.6295 28.9493 62.3611 29.7456 70.0287L68.537 66L49.9462 31.7161Z" fill="#F35555" fill-opacity="0.4"/>
</g>
<path d="M50.9462 33.7161C44.1696 37.3908 38.634 42.9914 35.0386 49.8104C31.4432 56.6295 29.9493 64.3611 30.7456 72.0287L69.537 68L50.9462 33.7161Z" fill="#F35555"/>
<g filter="url(#filter2_f_29_142)">
<path d="M30.7627 75.8098C30.2125 80.9017 30.6705 86.0521 32.1107 90.967C33.5509 95.8819 35.9451 100.465 39.1565 104.455C42.3679 108.444 46.3337 111.762 50.8274 114.219C55.3212 116.676 60.2548 118.224 65.3467 118.774L69.537 80L30.7627 75.8098Z" fill="#FDCD55" fill-opacity="0.4"/>
</g>
<path d="M30.7627 63.8098C30.2125 68.9017 30.6705 74.0521 32.1107 78.967C33.5509 83.8819 35.9451 88.465 39.1565 92.4546C42.3679 96.4442 46.3337 99.7622 50.8274 102.219C55.3212 104.676 60.2548 106.224 65.3467 106.774L69.537 68L30.7627 63.8098Z" fill="#FDCD55"/>
<g filter="url(#filter3_f_29_142)">
<path d="M66.9718 112.732C75.2434 113.707 83.6098 112.008 90.8462 107.884C98.0825 103.761 103.809 97.4288 107.186 89.8156L71.537 74L66.9718 112.732Z" fill="#28A164" fill-opacity="0.3"/>
</g>
<path d="M64.9718 106.732C73.2434 107.707 81.6098 106.008 88.8462 101.884C96.0825 97.7608 101.809 91.4288 105.186 83.8156L69.537 68L64.9718 106.732Z" fill="#28A164"/>
<g filter="url(#filter4_f_29_142)">
<path d="M112.472 84.6378C115.53 78.1575 116.9 71.0093 116.455 63.8575C116.009 56.7058 113.763 49.7829 109.924 43.7322C106.085 37.6816 100.779 32.6998 94.4987 29.2499C88.2183 25.8 81.1675 23.9941 74.0019 24L74.037 66.5L112.472 84.6378Z" fill="#4378DB" fill-opacity="0.3"/>
</g>
<path d="M108.472 85.6378C111.53 79.1575 112.9 72.0093 112.455 64.8575C112.009 57.7058 109.763 50.7829 105.924 44.7322C102.085 38.6816 96.7791 33.6998 90.4987 30.2499C84.2183 26.8 77.1675 24.9941 70.0019 25L70.037 67.5L108.472 85.6378Z" fill="#4378DB"/>
<circle cx="70.037" cy="67.5" r="14.5" fill="#EDF3FF"/>
<path d="M20.74 140.454L17.104 153H15.268L12.352 142.902L9.32801 153L7.51001 153.018L4.00001 140.454H5.74601L8.48201 151.092L11.506 140.454H13.342L16.222 151.056L18.976 140.454H20.74ZM21.6806 148.032C21.6806 147.024 21.8846 146.142 22.2926 145.386C22.7006 144.618 23.2586 144.024 23.9666 143.604C24.6866 143.184 25.4846 142.974 26.3606 142.974C27.2246 142.974 27.9746 143.16 28.6106 143.532C29.2466 143.904 29.7206 144.372 30.0326 144.936V143.136H31.6886V153H30.0326V151.164C29.7086 151.74 29.2226 152.22 28.5746 152.604C27.9386 152.976 27.1946 153.162 26.3426 153.162C25.4666 153.162 24.6746 152.946 23.9666 152.514C23.2586 152.082 22.7006 151.476 22.2926 150.696C21.8846 149.916 21.6806 149.028 21.6806 148.032ZM30.0326 148.05C30.0326 147.306 29.8826 146.658 29.5826 146.106C29.2826 145.554 28.8746 145.134 28.3586 144.846C27.8546 144.546 27.2966 144.396 26.6846 144.396C26.0726 144.396 25.5146 144.54 25.0106 144.828C24.5066 145.116 24.1046 145.536 23.8046 146.088C23.5046 146.64 23.3546 147.288 23.3546 148.032C23.3546 148.788 23.5046 149.448 23.8046 150.012C24.1046 150.564 24.5066 150.99 25.0106 151.29C25.5146 151.578 26.0726 151.722 26.6846 151.722C27.2966 151.722 27.8546 151.578 28.3586 151.29C28.8746 150.99 29.2826 150.564 29.5826 150.012C29.8826 149.448 30.0326 148.794 30.0326 148.05ZM35.0626 141.534C34.7506 141.534 34.4866 141.426 34.2706 141.21C34.0546 140.994 33.9466 140.73 33.9466 140.418C33.9466 140.106 34.0546 139.842 34.2706 139.626C34.4866 139.41 34.7506 139.302 35.0626 139.302C35.3626 139.302 35.6146 139.41 35.8186 139.626C36.0346 139.842 36.1426 140.106 36.1426 140.418C36.1426 140.73 36.0346 140.994 35.8186 141.21C35.6146 141.426 35.3626 141.534 35.0626 141.534ZM35.8546 143.136V153H34.2166V143.136H35.8546ZM40.4043 144.486V150.3C40.4043 150.78 40.5063 151.122 40.7103 151.326C40.9143 151.518 41.2683 151.614 41.7723 151.614H42.9783V153H41.5023C40.5903 153 39.9063 152.79 39.4503 152.37C38.9943 151.95 38.7663 151.26 38.7663 150.3V144.486H37.4883V143.136H38.7663V140.652H40.4043V143.136H42.9783V144.486H40.4043ZM48.6698 148.032C48.6698 147.024 48.8738 146.142 49.2818 145.386C49.6898 144.618 50.2478 144.024 50.9558 143.604C51.6758 143.184 52.4738 142.974 53.3498 142.974C54.2138 142.974 54.9638 143.16 55.5998 143.532C56.2358 143.904 56.7098 144.372 57.0218 144.936V143.136H58.6778V153H57.0218V151.164C56.6978 151.74 56.2118 152.22 55.5638 152.604C54.9278 152.976 54.1838 153.162 53.3318 153.162C52.4558 153.162 51.6638 152.946 50.9558 152.514C50.2478 152.082 49.6898 151.476 49.2818 150.696C48.8738 149.916 48.6698 149.028 48.6698 148.032ZM57.0218 148.05C57.0218 147.306 56.8718 146.658 56.5718 146.106C56.2718 145.554 55.8638 145.134 55.3478 144.846C54.8438 144.546 54.2858 144.396 53.6738 144.396C53.0618 144.396 52.5038 144.54 51.9998 144.828C51.4958 145.116 51.0938 145.536 50.7938 146.088C50.4938 146.64 50.3438 147.288 50.3438 148.032C50.3438 148.788 50.4938 149.448 50.7938 150.012C51.0938 150.564 51.4958 150.99 51.9998 151.29C52.5038 151.578 53.0618 151.722 53.6738 151.722C54.2858 151.722 54.8438 151.578 55.3478 151.29C55.8638 150.99 56.2718 150.564 56.5718 150.012C56.8718 149.448 57.0218 148.794 57.0218 148.05ZM69.2567 153.162C68.5007 153.162 67.8227 153.036 67.2227 152.784C66.6227 152.52 66.1487 152.16 65.8007 151.704C65.4527 151.236 65.2607 150.702 65.2247 150.102H66.9167C66.9647 150.594 67.1927 150.996 67.6007 151.308C68.0207 151.62 68.5667 151.776 69.2387 151.776C69.8627 151.776 70.3547 151.638 70.7147 151.362C71.0747 151.086 71.2547 150.738 71.2547 150.318C71.2547 149.886 71.0627 149.568 70.6787 149.364C70.2947 149.148 69.7007 148.938 68.8967 148.734C68.1647 148.542 67.5647 148.35 67.0967 148.158C66.6407 147.954 66.2447 147.66 65.9087 147.276C65.5847 146.88 65.4227 146.364 65.4227 145.728C65.4227 145.224 65.5727 144.762 65.8727 144.342C66.1727 143.922 66.5987 143.592 67.1507 143.352C67.7027 143.1 68.3327 142.974 69.0407 142.974C70.1327 142.974 71.0147 143.25 71.6867 143.802C72.3587 144.354 72.7187 145.11 72.7667 146.07H71.1287C71.0927 145.554 70.8827 145.14 70.4987 144.828C70.1267 144.516 69.6227 144.36 68.9867 144.36C68.3987 144.36 67.9307 144.486 67.5827 144.738C67.2347 144.99 67.0607 145.32 67.0607 145.728C67.0607 146.052 67.1627 146.322 67.3667 146.538C67.5827 146.742 67.8467 146.91 68.1587 147.042C68.4827 147.162 68.9267 147.3 69.4907 147.456C70.1987 147.648 70.7747 147.84 71.2187 148.032C71.6627 148.212 72.0407 148.488 72.3527 148.86C72.6767 149.232 72.8447 149.718 72.8567 150.318C72.8567 150.858 72.7067 151.344 72.4067 151.776C72.1067 152.208 71.6807 152.55 71.1287 152.802C70.5887 153.042 69.9647 153.162 69.2567 153.162ZM83.929 147.69C83.929 148.002 83.911 148.332 83.875 148.68H75.991C76.051 149.652 76.381 150.414 76.981 150.966C77.593 151.506 78.331 151.776 79.195 151.776C79.903 151.776 80.491 151.614 80.959 151.29C81.439 150.954 81.775 150.51 81.967 149.958H83.731C83.467 150.906 82.939 151.68 82.147 152.28C81.355 152.868 80.371 153.162 79.195 153.162C78.259 153.162 77.419 152.952 76.675 152.532C75.943 152.112 75.367 151.518 74.947 150.75C74.527 149.97 74.317 149.07 74.317 148.05C74.317 147.03 74.521 146.136 74.929 145.368C75.337 144.6 75.907 144.012 76.639 143.604C77.383 143.184 78.235 142.974 79.195 142.974C80.131 142.974 80.959 143.178 81.679 143.586C82.399 143.994 82.951 144.558 83.335 145.278C83.731 145.986 83.929 146.79 83.929 147.69ZM82.237 147.348C82.237 146.724 82.099 146.19 81.823 145.746C81.547 145.29 81.169 144.948 80.689 144.72C80.221 144.48 79.699 144.36 79.123 144.36C78.295 144.36 77.587 144.624 76.999 145.152C76.423 145.68 76.093 146.412 76.009 147.348H82.237ZM85.2391 148.05C85.2391 147.03 85.4431 146.142 85.8511 145.386C86.2591 144.618 86.8231 144.024 87.5431 143.604C88.2751 143.184 89.1091 142.974 90.0451 142.974C91.2571 142.974 92.2531 143.268 93.0331 143.856C93.8251 144.444 94.3471 145.26 94.5991 146.304H92.8351C92.6671 145.704 92.3371 145.23 91.8451 144.882C91.3651 144.534 90.7651 144.36 90.0451 144.36C89.1091 144.36 88.3531 144.684 87.7771 145.332C87.2011 145.968 86.9131 146.874 86.9131 148.05C86.9131 149.238 87.2011 150.156 87.7771 150.804C88.3531 151.452 89.1091 151.776 90.0451 151.776C90.7651 151.776 91.3651 151.608 91.8451 151.272C92.3251 150.936 92.6551 150.456 92.8351 149.832H94.5991C94.3351 150.84 93.8071 151.65 93.0151 152.262C92.2231 152.862 91.2331 153.162 90.0451 153.162C89.1091 153.162 88.2751 152.952 87.5431 152.532C86.8231 152.112 86.2591 151.518 85.8511 150.75C85.4431 149.982 85.2391 149.082 85.2391 148.05ZM100.847 153.162C99.9227 153.162 99.0827 152.952 98.3267 152.532C97.5827 152.112 96.9947 151.518 96.5627 150.75C96.1427 149.97 95.9327 149.07 95.9327 148.05C95.9327 147.042 96.1487 146.154 96.5807 145.386C97.0247 144.606 97.6247 144.012 98.3807 143.604C99.1367 143.184 99.9827 142.974 100.919 142.974C101.855 142.974 102.701 143.184 103.457 143.604C104.213 144.012 104.807 144.6 105.239 145.368C105.683 146.136 105.905 147.03 105.905 148.05C105.905 149.07 105.677 149.97 105.221 150.75C104.777 151.518 104.171 152.112 103.403 152.532C102.635 152.952 101.783 153.162 100.847 153.162ZM100.847 151.722C101.435 151.722 101.987 151.584 102.503 151.308C103.019 151.032 103.433 150.618 103.745 150.066C104.069 149.514 104.231 148.842 104.231 148.05C104.231 147.258 104.075 146.586 103.763 146.034C103.451 145.482 103.043 145.074 102.539 144.81C102.035 144.534 101.489 144.396 100.901 144.396C100.301 144.396 99.7487 144.534 99.2447 144.81C98.7527 145.074 98.3567 145.482 98.0567 146.034C97.7567 146.586 97.6067 147.258 97.6067 148.05C97.6067 148.854 97.7507 149.532 98.0387 150.084C98.3387 150.636 98.7347 151.05 99.2267 151.326C99.7187 151.59 100.259 151.722 100.847 151.722ZM112.624 142.956C113.824 142.956 114.796 143.322 115.54 144.054C116.284 144.774 116.656 145.818 116.656 147.186V153H115.036V147.42C115.036 146.436 114.79 145.686 114.298 145.17C113.806 144.642 113.134 144.378 112.282 144.378C111.418 144.378 110.728 144.648 110.212 145.188C109.708 145.728 109.456 146.514 109.456 147.546V153H107.818V143.136H109.456V144.54C109.78 144.036 110.218 143.646 110.77 143.37C111.334 143.094 111.952 142.956 112.624 142.956ZM118.48 148.032C118.48 147.024 118.684 146.142 119.092 145.386C119.5 144.618 120.058 144.024 120.766 143.604C121.486 143.184 122.29 142.974 123.178 142.974C123.946 142.974 124.66 143.154 125.32 143.514C125.98 143.862 126.484 144.324 126.832 144.9V139.68H128.488V153H126.832V151.146C126.508 151.734 126.028 152.22 125.392 152.604C124.756 152.976 124.012 153.162 123.16 153.162C122.284 153.162 121.486 152.946 120.766 152.514C120.058 152.082 119.5 151.476 119.092 150.696C118.684 149.916 118.48 149.028 118.48 148.032ZM126.832 148.05C126.832 147.306 126.682 146.658 126.382 146.106C126.082 145.554 125.674 145.134 125.158 144.846C124.654 144.546 124.096 144.396 123.484 144.396C122.872 144.396 122.314 144.54 121.81 144.828C121.306 145.116 120.904 145.536 120.604 146.088C120.304 146.64 120.154 147.288 120.154 148.032C120.154 148.788 120.304 149.448 120.604 150.012C120.904 150.564 121.306 150.99 121.81 151.29C122.314 151.578 122.872 151.722 123.484 151.722C124.096 151.722 124.654 151.578 125.158 151.29C125.674 150.99 126.082 150.564 126.382 150.012C126.682 149.448 126.832 148.794 126.832 148.05ZM131.538 153.108C131.226 153.108 130.962 153 130.746 152.784C130.53 152.568 130.422 152.304 130.422 151.992C130.422 151.68 130.53 151.416 130.746 151.2C130.962 150.984 131.226 150.876 131.538 150.876C131.838 150.876 132.09 150.984 132.294 151.2C132.51 151.416 132.618 151.68 132.618 151.992C132.618 152.304 132.51 152.568 132.294 152.784C132.09 153 131.838 153.108 131.538 153.108ZM135.077 153.108C134.765 153.108 134.501 153 134.285 152.784C134.069 152.568 133.961 152.304 133.961 151.992C133.961 151.68 134.069 151.416 134.285 151.2C134.501 150.984 134.765 150.876 135.077 150.876C135.377 150.876 135.629 150.984 135.833 151.2C136.049 151.416 136.157 151.68 136.157 151.992C136.157 152.304 136.049 152.568 135.833 152.784C135.629 153 135.377 153.108 135.077 153.108ZM138.617 153.108C138.305 153.108 138.041 153 137.825 152.784C137.609 152.568 137.501 152.304 137.501 151.992C137.501 151.68 137.609 151.416 137.825 151.2C138.041 150.984 138.305 150.876 138.617 150.876C138.917 150.876 139.169 150.984 139.373 151.2C139.589 151.416 139.697 151.68 139.697 151.992C139.697 152.304 139.589 152.568 139.373 152.784C139.169 153 138.917 153.108 138.617 153.108Z" fill="#333333"/>
</g>
<defs>
<filter id="filter0_d_29_142" x="0" y="24" width="143.697" height="137.162" filterUnits="userSpaceOnUse" color-interpolation-filters="sRGB">
<feFlood flood-opacity="0" result="BackgroundImageFix"/>
<feColorMatrix in="SourceAlpha" type="matrix" values="0 0 0 0 0 0 0 0 0 0 0 0 0 0 0 0 0 0 127 0" result="hardAlpha"/>
<feOffset dy="4"/>
<feGaussianBlur stdDeviation="2"/>
<feComposite in2="hardAlpha" operator="out"/>
<feColorMatrix type="matrix" values="0 0 0 0 0 0 0 0 0 0 0 0 0 0 0 0 0 0 0.25 0"/>
<feBlend mode="normal" in2="BackgroundImageFix" result="effect1_dropShadow_29_142"/>
<feBlend mode="normal" in="SourceGraphic" in2="effect1_dropShadow_29_142" result="shape"/>
</filter>
<filter id="filter1_f_29_142" x="5.53699" y="7.71606" width="87" height="86.3126" filterUnits="userSpaceOnUse" color-interpolation-filters="sRGB">
<feFlood flood-opacity="0" result="BackgroundImageFix"/>
<feBlend mode="normal" in="SourceGraphic" in2="BackgroundImageFix" result="shape"/>
<feGaussianBlur stdDeviation="12" result="effect1_foregroundBlur_29_142"/>
</filter>
<filter id="filter2_f_29_142" x="6.53699" y="51.8098" width="87" height="90.9645" filterUnits="userSpaceOnUse" color-interpolation-filters="sRGB">
<feFlood flood-opacity="0" result="BackgroundImageFix"/>
<feBlend mode="normal" in="SourceGraphic" in2="BackgroundImageFix" result="shape"/>
<feGaussianBlur stdDeviation="12" result="effect1_foregroundBlur_29_142"/>
</filter>
<filter id="filter3_f_29_142" x="42.9719" y="50" width="88.2144" height="87" filterUnits="userSpaceOnUse" color-interpolation-filters="sRGB">
<feFlood flood-opacity="0" result="BackgroundImageFix"/>
<feBlend mode="normal" in="SourceGraphic" in2="BackgroundImageFix" result="shape"/>
<feGaussianBlur stdDeviation="12" result="effect1_foregroundBlur_29_142"/>
</filter>
<filter id="filter4_f_29_142" x="50.002" y="0" width="90.535" height="108.638" filterUnits="userSpaceOnUse" color-interpolation-filters="sRGB">
<feFlood flood-opacity="0" result="BackgroundImageFix"/>
<feBlend mode="normal" in="SourceGraphic" in2="BackgroundImageFix" result="shape"/>
<feGaussianBlur stdDeviation="12" result="effect1_foregroundBlur_29_142"/>
</filter>
</defs>
</svg>
